<svg width="24" height="20" viewBox="0 0 24 20" fill="none" xmlns="http://www.w3.org/2000/svg">
<path d="M21.1765 18.4706H23.2941C23.684 18.4706 24 18.7867 24 19.1765C24 19.5664 23.684 19.8824 23.2941 19.8824H0.705891C0.316031 19.8824 0 19.5663 0 19.1765C0 18.7867 0.316031 18.4706 0.705891 18.4706H2.82352V6.47064C2.82352 6.08078 3.13955 5.76475 3.52941 5.76475H9.88233C10.2722 5.76475 10.5882 6.08078 10.5882 6.47064V18.4706H13.4117V0.823566C13.4117 0.433707 13.7278 0.117676 14.1176 0.117676H20.4705C20.8604 0.117676 21.1764 0.433707 21.1764 0.823566V18.4706H21.1765ZM4.2353 7.17653V18.4706H9.17648V7.17653H4.2353ZM14.8235 1.52946V18.4706H19.7647V1.52946H14.8235Z" fill="#333333"/>
</svg>
