<svg width="24" height="24" viewBox="0 0 24 24" fill="none" xmlns="http://www.w3.org/2000/svg">
<g clip-path="url(#clip0_1_170)">
<path d="M21.1765 20.4706H23.2941C23.684 20.4706 24 20.7867 24 21.1765C24 21.5664 23.684 21.8824 23.2941 21.8824H0.705891C0.316031 21.8824 0 21.5663 0 21.1765C0 20.7867 0.316031 20.4706 0.705891 20.4706H2.82352V8.47064C2.82352 8.08078 3.13955 7.76475 3.52941 7.76475H9.88233C10.2722 7.76475 10.5882 8.08078 10.5882 8.47064V20.4706H13.4117V2.82357C13.4117 2.43371 13.7278 2.11768 14.1176 2.11768H20.4705C20.8604 2.11768 21.1764 2.43371 21.1764 2.82357V20.4706H21.1765ZM4.2353 9.17653V20.4706H9.17648V9.17653H4.2353ZM14.8235 3.52946V20.4706H19.7647V3.52946H14.8235Z" fill="#EDECEA"/>
</g>
<defs>
<clipPath id="clip0_1_170">
<rect width="24" height="24" fill="white"/>
</clipPath>
</defs>
</svg>
