<svg width="20" height="20" viewBox="0 0 20 20" fill="none" xmlns="http://www.w3.org/2000/svg">
<g clip-path="url(#clip0_1_129)">
<path d="M18.5235 6.04219L10.2312 2.2573C10.0843 2.19028 9.91572 2.19028 9.76888 2.2573L1.4765 6.04219C0.883303 6.31298 0.5 6.90929 0.5 7.56134C0.5 7.69909 0.5 15.8007 0.5 16.1231C0.5 17.043 1.24894 17.793 2.16992 17.793H17.8301C18.7518 17.793 19.5 17.0423 19.5 16.1231C19.5 15.6569 19.5 7.66536 19.5 7.56134C19.5 6.90929 19.1167 6.31298 18.5235 6.04219ZM1.61328 15.8366V9.93827L5.50687 11.7154L1.61328 15.8366ZM2.34831 16.6797L6.57696 12.2038L9.76885 13.6607C9.91598 13.7278 10.0846 13.7276 10.2311 13.6607L13.423 12.2038L17.6517 16.6797H2.34831ZM18.3867 15.8366L14.4931 11.7154L18.3867 9.93827V15.8366ZM18.3867 8.71448L10 12.5425L1.61328 8.71448V7.56134C1.61328 7.34399 1.74105 7.14523 1.93877 7.05494L10 3.37559L18.0612 7.05494C18.259 7.14523 18.3867 7.34399 18.3867 7.56134V8.71448Z" fill="#5B5B5B"/>
</g>
<defs>
<clipPath id="clip0_1_129">
<rect width="19" height="19" fill="white" transform="translate(0.5 0.5)"/>
</clipPath>
</defs>
</svg>
