<svg width="28" height="28" viewBox="0 0 28 28" fill="none" xmlns="http://www.w3.org/2000/svg">
<g clip-path="url(#clip0_1_1854)">
<path d="M0 13.9996V3.42103C0 1.41691 1.41874 0.00365182 3.43361 0.00365182C6.97534 0 10.52 0.00803401 14.0661 0C15.0787 0 15.9305 0.337429 16.6391 1.06122C17.302 1.73851 17.9719 2.40874 18.6489 3.07191C19.3553 3.76795 19.6965 4.60568 19.6899 5.59679C19.6819 6.87273 19.6899 8.14868 19.6899 9.4239C19.6899 10.1353 19.237 10.6195 18.5839 10.6144C17.9476 10.6093 17.5041 10.1243 17.5034 9.42609C17.5034 8.15087 17.4968 6.87493 17.5034 5.59898C17.509 5.41284 17.4749 5.22764 17.4035 5.05564C17.3321 4.88365 17.2249 4.72878 17.0892 4.6013C16.4112 3.93667 15.7408 3.26644 15.0779 2.5906C14.9525 2.4583 14.8005 2.35394 14.6319 2.28435C14.4634 2.21475 14.282 2.18148 14.0997 2.18671C10.5361 2.19256 6.97218 2.19256 3.40804 2.18671C2.63 2.19109 2.19167 2.62931 2.19167 3.40642C2.19167 10.4666 2.19167 17.5283 2.19167 24.5914C2.19167 25.3685 2.63365 25.8089 3.41242 25.8089H15.7413C16.466 25.8089 16.8985 25.4006 16.9474 24.6798C16.9898 24.0502 17.4676 23.6032 18.0761 23.6237C18.6847 23.6441 19.1318 24.1349 19.1318 24.7616C19.1318 26.486 17.6707 27.9752 15.9261 27.9912C14.3043 28.008 12.6817 27.9963 11.0591 27.9963H3.43361C1.4202 27.9956 0 26.5809 0 24.579V13.9996Z" fill="#008800"/>
<path d="M21.4851 17.3095C21.4347 17.9333 21.453 18.5723 21.3186 19.1778C20.9986 20.621 19.6814 21.6355 18.2035 21.6538C17.657 21.6603 17.1076 21.6589 16.5634 21.6538C15.8898 21.6486 15.4252 21.1914 15.4244 20.5217C15.421 18.3627 15.421 16.2038 15.4244 14.0448C15.4244 13.3721 15.8876 12.9062 16.559 12.9098C17.2684 12.9135 17.9865 12.8748 18.6864 12.9668C20.2432 13.1713 21.4157 14.5568 21.4376 16.13C21.4435 16.5215 21.4376 16.9137 21.4376 17.3052L21.4851 17.3095ZM17.6241 15.1016V19.4678C17.8075 19.4678 17.9785 19.4714 18.1494 19.4678C18.7726 19.4532 19.2409 18.9974 19.2452 18.3773C19.2545 17.6397 19.2545 16.902 19.2452 16.1643C19.2433 15.9015 19.1449 15.6485 18.9688 15.4533C18.7926 15.2581 18.551 15.1343 18.2897 15.1053C18.0681 15.0919 17.8459 15.0902 17.6241 15.1002V15.1016Z" fill="#008800"/>
<path d="M10.5004 18.3707C10.5004 19.1208 10.5085 19.838 10.5004 20.5552C10.5017 20.7313 10.4602 20.9052 10.3797 21.0618C10.2991 21.2184 10.1818 21.3533 10.0378 21.4547C9.89384 21.5562 9.7274 21.6213 9.55276 21.6445C9.37811 21.6677 9.20045 21.6483 9.03494 21.5879C8.59076 21.428 8.3168 21.0205 8.31607 20.5026C8.31607 18.5905 8.31607 16.6784 8.31607 14.7663C8.31607 14.4932 8.30804 14.2193 8.31607 13.9469C8.33872 13.4144 8.74345 12.936 9.27091 12.9244C10.198 12.9017 11.1353 12.8637 12.0521 12.9711C13.4402 13.1332 14.4082 14.4209 14.322 15.8261C14.274 16.5 13.9786 17.1323 13.4926 17.6017C13.0067 18.0711 12.3643 18.3445 11.689 18.3692C11.3077 18.3802 10.9249 18.3707 10.5004 18.3707ZM10.5194 15.0943V16.1854C10.8927 16.1854 11.25 16.1942 11.6006 16.1854C11.7446 16.1859 11.8829 16.1292 11.985 16.0278C12.0871 15.9264 12.1448 15.7885 12.1453 15.6446C12.1458 15.5007 12.089 15.3625 11.9876 15.2604C11.8861 15.1582 11.7483 15.1006 11.6043 15.1001C11.2507 15.0855 10.8957 15.0943 10.5202 15.0943H10.5194Z" fill="#008800"/>
<path d="M24.7198 18.3738C24.7198 19.0932 24.7198 19.7753 24.7198 20.4575C24.7198 21.1659 24.261 21.6589 23.6152 21.6531C22.9832 21.6473 22.5339 21.1557 22.5332 20.4626C22.5332 18.3402 22.5332 16.2177 22.5332 14.0953C22.5332 13.354 22.9825 12.9077 23.7255 12.9062C24.7556 12.9062 25.7851 12.9062 26.8143 12.9062C27.5076 12.9062 27.997 13.3569 28.0007 13.9916C28.0043 14.6263 27.5112 15.0871 26.8011 15.0922C26.1188 15.0922 25.4372 15.0922 24.738 15.0922V16.1878H25.229C26.3942 16.1878 26.9027 16.5172 26.9092 17.2746C26.9158 18.032 26.3978 18.3752 25.2173 18.3752L24.7198 18.3738Z" fill="#008800"/>
<path d="M8.75067 6.9051C8.75067 6.37777 8.75067 5.85118 8.75067 5.32386C8.75067 4.6417 9.22041 4.15527 9.85673 4.15527C10.4814 4.16258 10.9328 4.64681 10.9365 5.31948C10.9365 5.8468 10.9365 6.37412 10.9365 6.97448C11.0629 6.85105 11.1476 6.76633 11.2346 6.68234C11.7065 6.23389 12.3655 6.22513 12.8023 6.66043C13.2392 7.09572 13.2407 7.76035 12.7811 8.22633C12.0735 8.94841 11.3588 9.6632 10.637 10.3707C10.1519 10.8447 9.51775 10.8337 9.02974 10.3532C8.325 9.65979 7.62366 8.95986 6.92574 8.25335C6.4538 7.77496 6.44138 7.11033 6.88337 6.667C7.32535 6.22367 7.98797 6.239 8.4694 6.70717C8.54137 6.78805 8.60615 6.87505 8.663 6.96718L8.75067 6.9051Z" fill="#008800"/>
</g>
<defs>
<clipPath id="clip0_1_1854">
<rect width="28" height="28" fill="white"/>
</clipPath>
</defs>
</svg>
