<svg width="18" height="17" viewBox="0 0 18 17" fill="none" xmlns="http://www.w3.org/2000/svg">
<g clip-path="url(#clip0_1_136)">
<path d="M13.9357 10.531C13.5877 10.1686 13.1679 9.97484 12.723 9.97484C12.2816 9.97484 11.8583 10.165 11.4959 10.5274L10.3621 11.6576C10.2688 11.6074 10.1755 11.5607 10.0858 11.5141C9.95663 11.4495 9.83464 11.3885 9.73059 11.3239C8.66855 10.6494 7.70339 9.77033 6.7777 8.63294C6.3292 8.06604 6.02781 7.58884 5.80895 7.10447C6.10316 6.83537 6.37584 6.55551 6.64135 6.28641C6.74182 6.18595 6.84228 6.0819 6.94274 5.98144C7.69622 5.22796 7.69622 4.25204 6.94274 3.49856L5.96323 2.51905C5.852 2.40782 5.73719 2.29301 5.62955 2.17819C5.41427 1.95574 5.18823 1.72611 4.95501 1.51083C4.60698 1.16638 4.19077 0.983398 3.75304 0.983398C3.31531 0.983398 2.89193 1.16638 2.53313 1.51083C2.52954 1.51442 2.52954 1.51442 2.52596 1.51801L1.30605 2.74868C0.846788 3.20794 0.584867 3.76766 0.527459 4.41708C0.441348 5.46477 0.749913 6.4407 0.986719 7.07935C1.56797 8.6473 2.43626 10.1004 3.73151 11.6576C5.30304 13.5341 7.1939 15.0159 9.35386 16.06C10.1791 16.4511 11.2806 16.914 12.5113 16.9929C12.5866 16.9965 12.6655 17.0001 12.7373 17.0001C13.5661 17.0001 14.2622 16.7023 14.8076 16.1103C14.8112 16.1031 14.8183 16.0995 14.8219 16.0923C15.0085 15.8663 15.2238 15.6618 15.4498 15.4429C15.6041 15.2958 15.762 15.1415 15.9162 14.9801C16.2715 14.6105 16.458 14.1799 16.458 13.7386C16.458 13.2937 16.2679 12.8667 15.9055 12.5079L13.9357 10.531ZM15.2202 14.3091C15.2166 14.3091 15.2166 14.3127 15.2202 14.3091C15.0802 14.4598 14.9367 14.5961 14.7824 14.7468C14.5492 14.9693 14.3124 15.2025 14.09 15.4644C13.7276 15.8519 13.3006 16.0349 12.7409 16.0349C12.6871 16.0349 12.6297 16.0349 12.5758 16.0313C11.5102 15.9632 10.5199 15.547 9.77724 15.1917C7.74645 14.2086 5.96323 12.8129 4.4814 11.0441C3.2579 9.5694 2.43985 8.20598 1.89806 6.74208C1.56438 5.84868 1.44239 5.15262 1.49621 4.49602C1.53209 4.07623 1.69355 3.72819 1.99135 3.43039L3.21485 2.2069C3.39066 2.04185 3.57723 1.95215 3.76022 1.95215C3.98626 1.95215 4.16925 2.08849 4.28406 2.20331C4.28765 2.2069 4.29124 2.21048 4.29482 2.21407C4.51369 2.41859 4.72179 2.63028 4.94066 2.85632C5.05188 2.97113 5.1667 3.08595 5.28151 3.20435L6.26103 4.18387C6.64135 4.56419 6.64135 4.91581 6.26103 5.29613C6.15698 5.40019 6.05651 5.50424 5.95246 5.6047C5.65107 5.91326 5.36404 6.2003 5.05188 6.48016C5.04471 6.48734 5.03753 6.49093 5.03394 6.4981C4.72538 6.80667 4.78279 7.10806 4.84737 7.31257C4.85096 7.32334 4.85455 7.3341 4.85813 7.34486C5.11288 7.96199 5.47168 8.54324 6.01705 9.23572L6.02064 9.23931C7.01091 10.4592 8.05501 11.41 9.20675 12.1384C9.35386 12.2317 9.50455 12.307 9.64807 12.3788C9.77724 12.4434 9.89923 12.5044 10.0033 12.5689C10.0176 12.5761 10.032 12.5869 10.0463 12.5941C10.1683 12.6551 10.2831 12.6838 10.4015 12.6838C10.6993 12.6838 10.8859 12.4972 10.9469 12.4362L12.174 11.2091C12.296 11.0871 12.4897 10.94 12.7158 10.94C12.9382 10.94 13.1212 11.0799 13.2324 11.2019C13.236 11.2055 13.236 11.2055 13.2396 11.2091L15.2166 13.1861C15.5862 13.552 15.5862 13.9288 15.2202 14.3091Z" fill="#5B5B5B"/>
<path d="M9.68777 4.04389C10.6278 4.20176 11.4817 4.64667 12.1635 5.32838C12.8452 6.0101 13.2865 6.86403 13.448 7.80408C13.4874 8.04089 13.6919 8.20593 13.9252 8.20593C13.9539 8.20593 13.979 8.20234 14.0077 8.19876C14.2732 8.1557 14.449 7.90454 14.4059 7.63903C14.2122 6.50165 13.674 5.46473 12.8524 4.64308C12.0307 3.82144 10.9938 3.28324 9.8564 3.08949C9.59089 3.04644 9.34332 3.22225 9.29668 3.48417C9.25003 3.74609 9.42226 4.00084 9.68777 4.04389Z" fill="#5B5B5B"/>
<path d="M17.481 7.49906C17.1617 5.62614 16.2791 3.92186 14.9228 2.5656C13.5666 1.20935 11.8623 0.326714 9.98937 0.00738457C9.72745 -0.039259 9.47988 0.140139 9.43324 0.402061C9.39018 0.66757 9.56599 0.91514 9.8315 0.961784C11.5035 1.24523 13.0284 2.03817 14.2411 3.24732C15.4538 4.46005 16.2432 5.98494 16.5266 7.65693C16.5661 7.89373 16.7706 8.05878 17.0038 8.05878C17.0326 8.05878 17.0577 8.05519 17.0864 8.05161C17.3483 8.01214 17.5277 7.76098 17.481 7.49906Z" fill="#5B5B5B"/>
</g>
<defs>
<clipPath id="clip0_1_136">
<rect width="17" height="17" fill="white" transform="translate(0.5)"/>
</clipPath>
</defs>
</svg>
