<svg width="19" height="20" viewBox="0 0 19 20" fill="none" xmlns="http://www.w3.org/2000/svg">
<g clip-path="url(#clip0_1_173)">
<path d="M16.6107 2.88932C15.0699 1.34854 13.0213 0.5 10.8424 0.5C8.66344 0.5 6.61489 1.34854 5.07415 2.88932C3.53341 4.43007 2.68483 6.47862 2.68483 8.65753C2.68483 10.6497 3.39451 12.5325 4.69363 14.0183L0.163207 18.5487C-0.0544023 18.7663 -0.0544023 19.1191 0.163207 19.3368C0.272012 19.4456 0.414623 19.5 0.557197 19.5C0.699771 19.5 0.84242 19.4456 0.951187 19.3368L5.48165 14.8063C6.9674 16.1054 8.85025 16.8151 10.8424 16.8151C13.0214 16.8151 15.0699 15.9666 16.6106 14.4258C18.1514 12.8851 18.9999 10.8365 18.9999 8.65757C18.9999 6.47862 18.1514 4.43007 16.6107 2.88932ZM15.8226 13.6378C13.0765 16.3839 8.60834 16.3839 5.86221 13.6378C3.11611 10.8917 3.11611 6.42347 5.86221 3.67738C7.2354 2.30418 9.03862 1.61781 10.8424 1.61781C12.6458 1.61781 14.4498 2.30452 15.8227 3.67738C18.5687 6.42344 18.5687 10.8917 15.8226 13.6378Z" fill="#EDECEA"/>
</g>
<defs>
<clipPath id="clip0_1_173">
<rect width="19" height="19" fill="white" transform="translate(0 0.5)"/>
</clipPath>
</defs>
</svg>
