<svg width="20" height="20" viewBox="0 0 20 20" fill="none" xmlns="http://www.w3.org/2000/svg">
<g clip-path="url(#clip0_1_164)">
<path d="M7.4885 10.4656C7.51958 10.5508 7.53993 10.6183 7.56818 10.6818C7.60757 10.7709 7.62793 10.8675 7.62793 10.9652C7.62793 11.0628 7.60757 11.1594 7.56818 11.2485C7.47381 11.4899 7.367 11.7283 7.29579 11.9765C7.04997 12.8384 7.62413 13.6041 8.5125 13.6047C11.4888 13.6047 14.4651 13.6062 17.4414 13.6093C17.5806 13.6093 17.7178 13.6416 17.8427 13.7036C17.9218 13.7434 17.9854 13.8088 18.0235 13.8894C18.0616 13.9701 18.072 14.0613 18.0529 14.1486C18.0419 14.2434 18.0019 14.3323 17.9385 14.403C17.8751 14.4737 17.7914 14.5225 17.6991 14.5426C17.6177 14.5603 17.5344 14.5679 17.4511 14.5655C14.4804 14.5655 11.5099 14.5655 8.53963 14.5655C6.9539 14.5655 5.92198 13.1306 6.4029 11.6025C6.41078 11.5644 6.42311 11.5273 6.43963 11.4921C6.68377 11.1004 6.58996 10.7212 6.45433 10.3112C5.53487 7.51239 4.63011 4.70958 3.72139 1.90905C3.51569 1.27997 3.09524 0.966009 2.44252 0.961434C1.95369 0.961434 1.46542 0.961434 0.97659 0.958003C0.881896 0.960434 0.78884 0.932705 0.710559 0.878731C0.632278 0.824756 0.572727 0.747262 0.540315 0.657191C0.502622 0.580391 0.490295 0.493372 0.505149 0.408948C0.520003 0.324525 0.561252 0.24716 0.622823 0.188244C0.705896 0.107608 0.826832 0.0218255 0.933075 0.0195379C1.53041 0.00695644 2.13227 -0.0233535 2.72508 0.0326913C3.67675 0.121906 4.29612 0.678923 4.60242 1.58937C4.82847 2.25333 5.04095 2.92014 5.25344 3.59097C5.29187 3.71221 5.33877 3.76253 5.47949 3.76253C10.0442 3.82544 14.6087 3.89159 19.173 3.96098C19.2747 3.96098 19.3764 3.96098 19.503 3.96098C19.4041 4.39046 19.3126 4.79364 19.2205 5.19568C18.9921 6.16979 18.7633 7.14314 18.5338 8.11573C18.3451 8.91637 17.8043 9.38074 16.9916 9.46481C15.0549 9.66497 13.1188 9.87256 11.1821 10.075C9.99991 10.1985 8.81729 10.3205 7.6343 10.441C7.59135 10.4433 7.55406 10.4525 7.4885 10.4656Z" fill="white"/>
<path d="M15.9473 20.0003C15.5277 20.0012 15.1173 19.8761 14.7679 19.641C14.4185 19.4058 14.1459 19.0711 13.9845 18.6792C13.8231 18.2873 13.7802 17.8557 13.8612 17.4391C13.9422 17.0224 14.1434 16.6395 14.4395 16.3386C14.7355 16.0377 15.1131 15.8324 15.5244 15.7487C15.9358 15.665 16.3624 15.7066 16.7504 15.8682C17.1384 16.0299 17.4703 16.3043 17.7042 16.6569C17.938 17.0094 18.0633 17.4242 18.0642 17.8488C18.0645 18.4179 17.8419 18.9639 17.4451 19.3672C17.0483 19.7705 16.5096 19.9981 15.9473 20.0003Z" fill="white"/>
<path d="M6.99235 20.0003C6.57281 20.0014 6.16236 19.8766 5.81289 19.6417C5.46343 19.4068 5.19063 19.0723 5.029 18.6805C4.86737 18.2887 4.82415 17.8572 4.90482 17.4406C4.98549 17.024 5.18642 16.6409 5.48221 16.3398C5.778 16.0387 6.15536 15.8331 6.56659 15.7491C6.97782 15.665 7.40446 15.7062 7.79255 15.8675C8.18064 16.0287 8.51277 16.3028 8.74695 16.6551C8.98112 17.0074 9.10683 17.422 9.10817 17.8465C9.10951 18.1287 9.05579 18.4083 8.95008 18.6694C8.84438 18.9305 8.68878 19.1679 8.4922 19.368C8.29563 19.5681 8.06194 19.727 7.80456 19.8355C7.54718 19.944 7.27117 20 6.99235 20.0003Z" fill="white"/>
</g>
<defs>
<clipPath id="clip0_1_164">
<rect width="19" height="20" fill="white" transform="translate(0.5)"/>
</clipPath>
</defs>
</svg>
