<svg width="20" height="13" viewBox="0 0 20 13" fill="none" xmlns="http://www.w3.org/2000/svg">
<g clip-path="url(#clip0_1_157)">
<path d="M17.0008 10.2164V10.4722C17.0008 11.0088 17.007 11.5454 16.9976 12.0814C16.9882 12.643 16.6038 12.9942 16.0128 13C15.4218 13.0058 15.0198 12.6448 15.0111 12.075C15.0029 11.4675 15.0111 10.8594 15.0111 10.2298C14.9103 10.2245 14.8283 10.217 14.7456 10.217C14.1759 10.217 13.6055 10.2222 13.0358 10.217C12.3859 10.2077 12.0053 9.84838 12.0128 9.26817C12.0197 8.7275 12.396 8.36822 12.9813 8.36066C13.5667 8.3531 14.1371 8.36066 14.7149 8.36066H15.0105V8.1223C15.0105 7.58627 15.0048 7.04967 15.0105 6.51307C15.0211 5.83345 15.5877 5.43986 16.2964 5.61136C16.7196 5.71426 16.9851 6.00902 16.9932 6.43226C17.007 6.99037 16.9989 7.54848 17.0001 8.1066C17.0001 8.1845 17.0001 8.26182 17.0001 8.36066H18.0313C18.3825 8.36066 18.7337 8.35194 19.085 8.36473C19.5758 8.38275 19.9364 8.6932 19.9909 9.12458C20.0535 9.63676 19.8225 10.0327 19.3611 10.1623C19.2109 10.2012 19.0556 10.2208 18.8996 10.2205C18.3612 10.2269 17.8228 10.2205 17.2837 10.2205L17.0008 10.2164Z" fill="white"/>
<path d="M6.51474 0C8.3337 0 10.1525 0 11.971 0C12.7223 0 13.1605 0.545324 12.9614 1.21739C12.9222 1.3741 12.833 1.51619 12.7054 1.62509C12.5779 1.73399 12.4179 1.80464 12.2465 1.82783C12.1081 1.84982 11.9679 1.85994 11.8276 1.85806C8.28362 1.85961 4.73982 1.86038 1.19623 1.86038C1.11045 1.86038 1.02406 1.86038 0.93891 1.85515C0.328486 1.80224 -0.0102216 1.43889 0.0160736 0.862171C0.0398645 0.342427 0.423649 0.00348822 1.01153 0C2.84594 0 4.68034 0 6.51474 0Z" fill="white"/>
<path d="M6.4882 6.49505C4.67759 6.49505 2.86677 6.49505 1.05574 6.49505C0.525454 6.49505 0.198017 6.29041 0.0621581 5.89043C-0.163855 5.22709 0.266885 4.65095 1.01254 4.65095C4.67342 4.6463 8.33408 4.6463 11.9945 4.65095C12.6169 4.65095 13.0013 5.01024 13.005 5.56428C13.0088 6.13112 12.6237 6.49447 11.9908 6.49447C10.1564 6.49854 8.32261 6.49505 6.4882 6.49505Z" fill="white"/>
<path d="M4.50346 11.1416C3.34772 11.1416 2.19136 11.1445 1.03563 11.1416C0.269309 11.1375 -0.178336 10.5451 0.0677121 9.87184C0.202945 9.50267 0.526626 9.29512 1.00683 9.28291C1.33426 9.27478 1.66233 9.28291 1.99039 9.28291C3.94333 9.28291 5.89585 9.28291 7.84796 9.28291C8.01933 9.2791 8.19043 9.29749 8.35633 9.33756C8.81149 9.46081 9.06505 9.8794 8.9918 10.3509C8.91667 10.834 8.56795 11.134 8.03891 11.1375C6.9295 11.145 5.82072 11.1375 4.71194 11.141L4.50346 11.1416Z" fill="white"/>
</g>
<defs>
<clipPath id="clip0_1_157">
<rect width="20" height="13" fill="white"/>
</clipPath>
</defs>
</svg>
