<svg width="23" height="19" viewBox="0 0 23 19" fill="none" xmlns="http://www.w3.org/2000/svg">
<path d="M22.346 1.40272C22.2189 1.97162 22.0879 2.5394 21.9654 3.10944C21.031 7.44881 20.0976 11.788 19.1651 16.127C19.0956 16.451 19.0324 16.7762 18.9481 17.0963C18.633 18.2867 17.7585 18.2149 17.0799 17.7319C15.6829 16.7395 14.3036 15.7215 12.9197 14.7115C12.7135 14.5617 12.501 14.4191 12.3027 14.2591C12.1888 14.1686 12.1215 14.1794 12.0179 14.2772C11.2151 15.0463 10.4055 15.8081 9.59991 16.5743C9.36005 16.8005 9.08715 16.9425 8.72309 16.9289C8.74417 16.6179 8.76354 16.3176 8.78519 16.0173C8.8792 14.7025 8.97149 13.3871 9.07462 12.0723C9.08859 11.9584 9.14195 11.8529 9.22559 11.7737C12.2395 9.07806 15.256 6.38584 18.2752 3.69701C18.3123 3.66364 18.3618 3.63706 18.3835 3.59634C18.4319 3.5036 18.4661 3.4035 18.5065 3.30624C18.4023 3.27966 18.2895 3.21236 18.1966 3.23385C18.025 3.27481 17.8613 3.34318 17.7118 3.4363C13.9546 5.76509 10.1993 8.09765 6.44587 10.434C6.38673 10.475 6.31835 10.501 6.24673 10.5097C6.17511 10.5183 6.10244 10.5094 6.03509 10.4837C4.46548 9.99344 2.89188 9.51388 1.3234 9.02075C1.11414 8.95564 0.916632 8.8579 0.738289 8.73121C0.453422 8.5248 0.41525 8.22734 0.67106 7.98926C0.885706 7.78472 1.13662 7.62136 1.41114 7.50744C2.97449 6.89386 4.54467 6.30346 6.11656 5.70684C11.0166 3.84404 15.9179 1.98237 20.8202 0.121827C20.9781 0.0590563 21.1443 0.0192479 21.3136 0.0036345C21.8264 -0.0336894 22.1654 0.217399 22.3004 0.713354C22.3129 0.760292 22.3306 0.806099 22.346 0.852471V1.40272Z" fill="#5B5B5B"/>
</svg>
