<svg width="28" height="15" viewBox="0 0 28 15" fill="none" xmlns="http://www.w3.org/2000/svg">
<g clip-path="url(#clip0_1_151)">
<path d="M27.5 13.9685V14.4205C27.3172 14.8228 26.9698 14.9716 26.5339 14.9803C26.4284 14.9803 26.323 14.9844 26.2175 14.985C25.4272 14.985 24.6341 14.9488 23.8459 14.9951C23.0443 15.042 22.4396 14.7537 21.92 14.2066C21.3118 13.5696 20.7085 12.9232 20.0455 12.3405C19.4127 11.7874 18.7236 11.2966 18.0366 10.8071C17.708 10.5742 17.3011 10.4647 16.8934 10.4993C16.5418 10.5248 16.3815 10.6435 16.3309 10.9781C16.2975 11.1847 16.2798 11.3933 16.2781 11.6023C16.2732 12.4069 16.283 13.2075 16.2781 14.0101C16.2739 14.4721 16.0897 14.6954 15.627 14.8368C15.5022 14.876 15.374 14.9042 15.2438 14.9213C14.2048 15.0521 13.1491 14.9918 12.1339 14.7436C9.68211 14.1476 7.68805 12.8454 6.08281 11.0257C4.13541 8.82153 2.55787 6.34298 1.40633 3.67821C1.03438 2.81928 0.798125 1.90739 0.5 1.01963V0.567705C0.630781 0.161375 0.950703 0.0131921 1.36414 0.0105101C2.26906 0.00380499 3.17188 0.00715755 4.07891 -0.000218071C4.96766 -0.000218071 5.37055 -0.0860435 5.83602 1.16647C6.40695 2.70865 7.09742 4.19785 8.00094 5.58648C8.50297 6.35757 9.08586 7.08373 9.67297 7.79917C9.87547 8.04591 10.1806 8.23835 10.4766 8.38855C10.8099 8.55684 11.0778 8.4033 11.1615 8.05329C11.1964 7.90676 11.2144 7.757 11.2149 7.60673C11.2212 6.19329 11.2311 4.77985 11.2212 3.36642C11.2156 2.60874 10.9759 1.92013 10.4478 1.33678C10.3488 1.23036 10.2589 1.11645 10.1792 0.996161C9.90219 0.564352 10.1581 0.0721971 10.6876 0.0125216C10.7928 0.00357937 10.8984 0.000668586 11.004 0.003805C12.032 0.003805 13.0599 0.003805 14.0879 0.003805C14.5801 0.003805 15.0723 -0.00155909 15.5645 0.0118511C15.9434 0.0219088 16.1523 0.186855 16.2261 0.539543C16.2637 0.745166 16.2807 0.953749 16.2767 1.16245C16.2767 2.87694 16.2767 4.59144 16.2809 6.30594C16.2775 6.48952 16.2961 6.67287 16.3365 6.8524C16.4307 7.22588 16.7063 7.36669 17.0712 7.20509C17.3133 7.10675 17.5326 6.96389 17.7167 6.78468C18.2729 6.1953 18.8382 5.60727 19.3248 4.96693C20.3091 3.67686 21.0741 2.26678 21.7477 0.809759C21.9762 0.310899 22.351 0.0131921 22.9353 0.00916908C23.9984 -0.000218071 25.0616 -0.000218071 26.1247 0.0111806C26.818 0.0212383 27.1091 0.37795 26.877 0.998173C26.645 1.6184 26.3848 2.23929 26.0241 2.7938C25.0496 4.29105 24.0252 5.76148 23 7.2299C22.4881 7.96746 22.4909 8.20013 23.1406 8.83913L23.2341 8.92764C23.8149 9.49824 24.4119 10.0548 24.9723 10.6428C25.9468 11.6586 26.9593 12.653 27.5 13.9685Z" fill="#5B5B5B"/>
</g>
<defs>
<clipPath id="clip0_1_151">
<rect width="27" height="15" fill="white" transform="translate(0.5)"/>
</clipPath>
</defs>
</svg>
