<svg width="28" height="19" viewBox="0 0 28 19" fill="none" xmlns="http://www.w3.org/2000/svg">
<path d="M0.5 11.0641V7.74303C0.513811 7.66179 0.534933 7.57568 0.54062 7.49119C0.64867 6.0516 0.743721 4.61202 0.863957 3.17325C0.96632 1.9319 2.11344 0.764473 3.33692 0.636113C4.42798 0.521564 5.51985 0.406202 6.61253 0.307901C9.0595 0.0812405 11.513 0 13.9697 0C17.3631 0.00406202 20.7403 0.238035 24.1117 0.615803C25.3929 0.759599 26.5782 1.85391 26.6944 3.10339C26.8504 4.73713 26.9795 6.37657 27.0437 8.016C27.1444 10.5775 26.9909 13.1342 26.7057 15.6794C26.5684 16.9086 25.4262 18.0654 24.2141 18.1711C22.0531 18.3587 19.8929 18.5651 17.7287 18.7016C14.7669 18.8769 11.7969 18.8625 8.8369 18.6585C7.02686 18.5423 5.2217 18.3417 3.4141 18.1767C2.15568 18.0622 0.987443 16.9427 0.870457 15.6851C0.738847 14.265 0.652732 12.8417 0.545495 11.42C0.535746 11.3006 0.515436 11.1828 0.5 11.0641ZM11.5747 13.8263L18.2104 9.40521L11.5747 4.98004V13.8263Z" fill="#5B5B5B"/>
</svg>
